:SAMPLES-PER-SECOND 25
:FULLY-SPECIFIED
:DEGREES
623
root  13.3246 38.4237 -79.4589 175.122 -7.02286 173.331
RightUpLeg  0.546819 -4.81004 -13.4886
RightLeg  54.1137 2.24425 2.9312
RightFoot  9.26168 -1.42375 8.17416
RightToes  2.84633e-005 7.89722e-005 -0.000426369
Spine  1.51508 3.71048 -4.10027
Spine1  2.53338 6.55721 -4.46833
HEad  35.897 10.7041 -7.44096
LeftShoulder1  -3.88251e-019 0 -3.92111e-022
LeftArm  -39.6517 24.2518 -74.8308
LeftForeArm  25.3366 2.1496 1.01446
LeftHand  -0.444582 -4.44111 5.53048
RightShoulder  7.45443e-017 -2.42657e-020 1.96277e-018
RightArm  -26.9479 -12.5218 78.7372
RightForeArm  36.2184 2.53554 5.37119
RightHand  -0.81085 7.4914 -7.65629
LeftUpLeg  -11.286 -3.70902 -9.67986
LeftLeg  10.4948 21.487 2.16848
LeftFoot  3.76092 -0.996228 7.34047
LeftToes  3.91355e-005 3.11907e-005 -4.10385e-006
624
root  13.0855 38.4299 -80.4412 174.636 -9.47461 173.832
RightUpLeg  -4.51774 -3.39418 -11.8349
RightLeg  61.0122 0.751571 0.957397
RightFoot  11.0921 -1.15717 6.20059
RightToes  2.84633e-005 7.89722e-005 -0.000426369
Spine  1.72752 3.34169 -3.9098
Spine1  3.00272 5.75832 -3.78043
HEad  35.325 12.4627 -8.79415
LeftShoulder1  -3.88251e-019 0 -3.92111e-022
LeftArm  -40.0377 20.9235 -76.0031
LeftForeArm  22.556 2.22821 0.633459
LeftHand  -0.545592 -4.75553 6.53351
RightShoulder  7.45443e-017 -2.42657e-020 1.96277e-018
RightArm  -24.9745 -14.2353 76.8378
RightForeArm  35.7293 5.24532 8.83589
RightHand  -0.826692 9.09706 -7.00619
LeftUpLeg  -10.1748 -3.23414 -10.2852
LeftLeg  13.0047 18.6137 2.91785
LeftFoot  2.02686 -0.883744 7.4336
LeftToes  3.91355e-005 3.11907e-005 -4.10385e-006
625
root  13.0692 38.5216 -81.3984 174.563 -13.9875 174.007
RightUpLeg  -8.74103 -3.35766 -10.5495
RightLeg  63.4584 -0.0340705 -0.646069
RightFoot  4.93276 -0.655324 4.79717
RightToes  2.84633e-005 7.89722e-005 -0.000426369
Spine  2.06899 2.7386 -3.8216
Spine1  3.74369 4.52725 -3.11869
HEad  34.0849 12.448 -10.2391
LeftShoulder1  -3.88251e-019 0 -3.92111e-022
LeftArm  -39.6735 16.7395 -77.9987
LeftForeArm  20.6332 2.28225 0.359568
LeftHand  -0.607171 -5.03064 7.06242
RightShoulder  7.45443e-017 -2.42657e-020 1.96277e-018
RightArm  -23.0419 -14.9742 75.0748
RightForeArm  35.5212 6.96248 10.2935
RightHand  -1.19396 11.4794 -8.57873
LeftUpLeg  -8.88142 -2.99001 -10.8899
LeftLeg  14.3424 14.0415 2.58651
LeftFoot  -0.545466 -0.711973 7.56054
LeftToes  3.91355e-005 3.11907e-005 -4.10385e-006
626
root  13.2055 38.598 -82.3296 174.924 -19.5912 174.383
RightUpLeg  -12.2885 -3.47693 -9.40312
RightLeg  61.3606 -0.354734 -1.22554
RightFoot  -2.19939 -0.337016 4.02522
RightToes  2.84633e-005 7.89722e-005 -0.000426369
Spine  2.16598 2.04162 -3.67676
Spine1  4.0359 3.26768 -2.65958
HEad  33.8385 11.1097 -10.5263
LeftShoulder1  -3.88251e-019 0 -3.92111e-022
LeftArm  -38.455 12.1019 -79.424
LeftForeArm  21.4757 2.2773 0.261805
LeftHand  -0.623628 -5.44748 6.98911
RightShoulder  7.45443e-017 -2.42657e-020 1.96277e-018
RightArm  -24.2609 -15.2157 74.771
RightForeArm  35.8838 6.7277 9.71258
RightHand  -1.3851 11.438 -9.9207
LeftUpLeg  -8.03423 -1.9645 -10.6097
LeftLeg  15.4167 8.01392 1.17723
LeftFoot  -2.33031 -0.542395 7.05263
LeftToes  3.91355e-005 3.11907e-005 -4.10385e-006
627
root  13.3601 38.7574 -83.1841 174.722 -25.4394 175.62
RightUpLeg  -14.1022 -3.07985 -8.33951
RightLeg  54.6333 -0.626831 -1.34524
RightFoot  -5.53445 -0.248195 4.16303
RightToes  2.84633e-005 7.89722e-005 -0.000426369
Spine  2.16848 1.28475 -3.04086
Spine1  4.16738 1.99137 -1.79179
HEad  34.5264 9.66589 -10.2303
LeftShoulder1  -3.88251e-019 0 -3.92111e-022
LeftArm  -37.3927 7.66568 -80.1336
LeftForeArm  25.0349 2.23193 0.0793745
LeftHand  -0.68489 -5.50016 7.61081
RightShoulder  7.45443e-017 -2.42657e-020 1.96277e-018
RightArm  -25.8922 -15.2879 75.1335
RightForeArm  34.5187 5.84061 8.59986
RightHand  -1.13826 9.80479 -9.05027
LeftUpLeg  -6.78569 -1.12539 -9.36352
LeftLeg  15.6782 1.81664 -0.308474
LeftFoot  -2.86159 -0.466816 6.52298
LeftToes  3.91355e-005 3.11907e-005 -4.10385e-006
628
root  13.5753 38.9345 -83.9497 174.571 -31.4081 176.557
RightUpLeg  -14.5171 -1.55691 -8.50987
RightLeg  44.9848 -0.427117 -0.744938
RightFoot  -7.36126 -0.22115 4.91287
RightToes  2.84633e-005 7.89722e-005 -0.000426369
Spine  2.24892 0.638935 -2.32211
Spine1  4.43389 0.949343 -1.14348
HEad  34.8024 7.90463 -10.076
LeftShoulder1  -3.88251e-019 0 -3.92111e-022
LeftArm  -36.5134 3.62785 -81.0811
LeftForeArm  29.1 2.17329 -0.0983194
LeftHand  -0.780101 -4.94488 9.05542
RightShoulder  7.45443e-017 -2.42657e-020 1.96277e-018
RightArm  -26.6126 -15.1971 75.3835
RightForeArm  32.839 5.14668 7.62566
RightHand  -0.938478 9.24083 -7.81715
LeftUpLeg  -5.70291 -1.48078 -8.38298
LeftLeg  15.5164 -3.50347 -1.34457
LeftFoot  -3.61057 -0.390722 6.09652
LeftToes  3.91355e-005 3.11907e-005 -4.10385e-006
629
root  13.8541 39.05 -84.6957 175.088 -37.2051 176.823
RightUpLeg  -14.2983 1.89239 -9.79657
RightLeg  34.5077 3.07563 2.01415
RightFoot  -9.97013 -0.127478 4.76967
RightToes  2.84633e-005 7.89722e-005 -0.000426369
Spine  2.30101 0.224495 -1.71577
Spine1  4.60368 0.332004 -0.988468
HEad  34.3887 5.88816 -9.98217
LeftShoulder1  -3.88251e-019 0 -3.92111e-022
LeftArm  -35.2885 0.248452 -82.3597
LeftForeArm  31.6202 2.13824 -0.236572
LeftHand  -0.817898 -4.57186 9.80423
RightShoulder  7.45443e-017 -2.42657e-020 1.96277e-018
RightArm  -26.8279 -15.2314 75.5234
RightForeArm  33.0798 5.09342 7.45828
RightHand  -1.02194 9.6151 -8.26565
LeftUpLeg  -5.41022 -1.96005 -7.6444
LeftLeg  15.644 -8.45333 -2.51053
LeftFoot  -4.13645 -0.327718 5.59946
LeftToes  3.91355e-005 3.11907e-005 -4.10385e-006
630
root  14.1289 39.1275 -85.4591 175.733 -42.2478 176.842
RightUpLeg  -13.2809 7.9144 -11.4531
RightLeg  24.4421 11.7357 5.62526
RightFoot  -11.6347 -0.0597972 6.09659
RightToes  2.84633e-005 7.89722e-005 -0.000426369
Spine  2.26765 0.0145636 -1.06886
Spine1  4.55646 0.0362276 -1.02899
HEad  34.261 4.60597 -9.94138
LeftShoulder1  -3.88251e-019 0 -3.92111e-022
LeftArm  -34.1554 -2.17338 -83.2775
LeftForeArm  33.2768 2.14846 -0.615787
LeftHand  -0.796418 -4.76804 9.3852
RightShoulder  7.45443e-017 -2.42657e-020 1.96277e-018
RightArm  -26.5087 -15.6617 75.4866
RightForeArm  33.847 5.92746 8.38492
RightHand  -1.18606 9.65232 -9.50656
LeftUpLeg  -5.35253 -2.18718 -6.7796
LeftLeg  16.0124 -13.024 -3.87304
LeftFoot  -4.24395 -0.295911 5.18406
LeftToes  3.91355e-005 3.11907e-005 -4.10385e-006
631
root  14.423 39.1227 -86.2924 176.559 -46.3782 176.403
RightUpLeg  -12.0195 12.0484 -12.1892
RightLeg  17.7523 24.0412 6.7055
RightFoot  -10.528 -0.142316 9.92522
RightToes  2.84633e-005 7.89722e-005 -0.000426369
Spine  2.18704 -0.0407826 -0.476053
Spine1  4.37622 -0.0340811 -1.26225
HEad  34.5425 4.20477 -10.1018
LeftShoulder1  -3.88251e-019 0 -3.92111e-022
LeftArm  -33.7042 -3.47614 -83.8611
LeftForeArm  35.3878 2.16779 -1.10244
LeftHand  -0.81233 -4.83155 9.50923
RightShoulder  7.45443e-017 -2.42657e-020 1.96277e-018
RightArm  -25.784 -15.9053 75.3459
RightForeArm  33.3207 6.78968 9.15217
RightHand  -1.24524 9.70656 -9.92511
LeftUpLeg  -5.62133 -2.84829 -5.97728
LeftLeg  17.1257 -16.5085 -5.26785
LeftFoot  -5.26951 -0.222793 4.7974
LeftToes  3.91355e-005 3.11907e-005 -4.10385e-006
632
root  14.782 39.1112 -87.2162 177.701 -49.9555 175.714
RightUpLeg  -11.3918 9.18603 -11.0896
RightLeg  16.9506 34.5705 6.92267
RightFoot  -8.34094 -0.351405 11.3218
RightToes  2.84633e-005 7.89722e-005 -0.000426369
Spine  2.08491 -0.0770718 -0.341148
Spine1  4.1647 -0.102167 -1.43004
HEad  34.668 4.32642 -10.1211
LeftShoulder1  -3.88251e-019 0 -3.92111e-022
LeftArm  -33.6844 -3.41888 -84.2117
LeftForeArm  36.9333 2.18495 -1.43527
LeftHand  -0.889435 -4.51886 10.6885
RightShoulder  7.45443e-017 -2.42657e-020 1.96277e-018
RightArm  -25.7172 -15.346 75.513
RightForeArm  32.9101 6.64623 9.13622
RightHand  -1.22188 10.0102 -9.56666
LeftUpLeg  -6.10367 -3.88325 -4.94994
LeftLeg  18.1908 -19.2798 -6.5644
LeftFoot  -6.52141 -0.120261 3.79311
LeftToes  3.91355e-005 3.11907e-005 -4.10385e-006
633
root  15.2153 39.2305 -88.1621 178.407 -53.5933 175.646
RightUpLeg  -10.9171 9.31416 -10.2927
RightLeg  17.1912 31.8904 7.3515
RightFoot  -7.49958 -0.37704 9.65264
RightToes  2.84633e-005 7.89722e-005 -0.000426369
Spine  1.97945 -0.222154 -0.3834
Spine1  3.96159 -0.40056 -1.27768
HEad  34.6622 4.87285 -9.65433
LeftShoulder1  -3.88251e-019 0 -3.92111e-022
LeftArm  -33.7135 -2.30801 -84.0447
LeftForeArm  36.7293 2.23428 -1.72792
LeftHand  -0.900123 -4.41512 10.9212
RightShoulder  7.45443e-017 -2.42657e-020 1.96277e-018
RightArm  -25.6219 -14.6026 75.9889
RightForeArm  33.3359 6.13761 9.30523
RightHand  -1.17107 9.96085 -9.21525
LeftUpLeg  -6.18487 -4.91956 -3.31664
LeftLeg  17.8726 -22.3232 -7.31838
LeftFoot  -6.76993 -0.0328609 1.86075
LeftToes  3.91355e-005 3.11907e-005 -4.10385e-006
634
root  15.7051 39.4057 -89.1051 177.957 -57.5366 176.925
RightUpLeg  -9.85442 6.97605 -8.0787
RightLeg  16.065 28.7296 6.17478
RightFoot  -7.5804 -0.340222 8.76848
RightToes  2.84633e-005 7.89722e-005 -0.000426369
Spine  1.85923 -0.31003 -0.127216
Spine1  3.72456 -0.595366 -0.596942
HEad  34.5892 5.32321 -9.13712
LeftShoulder1  -3.88251e-019 0 -3.92111e-022
LeftArm  -33.8315 -1.21654 -83.7478
LeftForeArm  36.0326 2.25273 -1.76956
LeftHand  -0.834588 -4.49888 10.0679
RightShoulder  7.45443e-017 -2.42657e-020 1.96277e-018
RightArm  -24.9383 -14.4748 76.2012
RightForeArm  34.1075 6.07102 10.1127
RightHand  -1.18828 9.74428 -9.46949
LeftUpLeg  -6.32447 -5.76719 -0.944238
LeftLeg  17.0905 -26.0237 -7.68101
LeftFoot  -6.82555 0.0459994 -0.133196
LeftToes  3.91355e-005 3.11907e-005 -4.10385e-006
